<svg xmlns="http://www.w3.org/2000/svg" viewBox="0 0 174.5 62.66"><defs><style>.cls-1,.cls-2{fill:#baa360;}.cls-2{font-size:20px;font-family:IBMPlexSerif-SemiBold, IBM Plex Serif;font-weight:600;}.cls-3{letter-spacing:-0.01em;}</style></defs><g id="Layer_2" data-name="Layer 2"><g id="Layer_1-2" data-name="Layer 1"><polygon class="cls-1" points="75.55 57.71 75.55 23.8 52.32 47.03 52.32 57.71 39.58 57.71 39.58 34.59 16.34 11.36 16.34 57.71 0 57.71 0 62.21 20.84 62.21 20.84 22.21 23.98 25.36 23.98 62.66 28.48 62.66 28.48 29.86 35.08 36.45 35.08 62.21 56.81 62.21 56.81 48.9 63.75 41.96 63.75 62.66 68.24 62.66 68.24 37.47 71.06 34.65 71.06 62.21 88.74 62.21 88.74 57.71 75.55 57.71"/><polygon class="cls-1" points="45.83 6.36 66.28 26.81 69.46 23.63 45.83 0 28.39 17.44 31.57 20.62 45.83 6.36"/><rect class="cls-1" x="40.61" y="17.5" width="3.98" height="3.98"/><rect class="cls-1" x="47.21" y="17.5" width="3.98" height="3.98"/><rect class="cls-1" x="40.61" y="23.76" width="3.98" height="3.98"/><rect class="cls-1" x="47.21" y="23.76" width="3.98" height="3.98"/><text class="cls-2" transform="translate(88.74 43.51)">HO<tspan class="cls-3" x="31.04" y="0">S</tspan><tspan x="43.1" y="0">TER</tspan></text></g></g></svg>